<svg xmlns="http://www.w3.org/2000/svg" xmlns:xlink="http://www.w3.org/1999/xlink" id="Layer_1" x="0" y="0" version="1.1" viewBox="0 0 270 119" xml:space="preserve" style="enable-background:new 0 0 270 119"><style type="text/css">.st0{fill:#fff}.st1{fill:#b6b6b6}.st2{fill:#ffae00}</style><path d="M58.4,79.1C53.6,83.4,47.2,86,40.2,86c-15.2,0-27.5-12.3-27.5-27.5c0-15.2,12.3-27.5,27.5-27.5	c11.2,0,20.9,6.8,25.1,16.4h13.5c-4.8-16.8-20.3-29.2-38.7-29.2C18,18.3,0,36.3,0,58.6c0,22.2,18,40.2,40.2,40.2	c14.7,0,27.6-7.9,34.6-19.7H58.4z" class="st0"/><rect width="7.5" height="117.5" x="27.9" y="-1.2" class="st1" transform="matrix(0.962 0.2732 -0.2732 0.962 16.9261 -6.4719)"/><rect width="7.5" height="117.5" x="41.7" y=".7" class="st2" transform="matrix(0.962 0.2732 -0.2732 0.962 17.9578 -10.156)"/><path d="M125.5,33.3c2.5,1.9,4.1,4.6,4.9,7.9h-6.3c-0.7-1.6-1.7-2.9-3-3.8c-1.4-0.9-3-1.4-5-1.4c-1.6,0-3,0.4-4.3,1.2	s-2.3,1.9-3,3.4c-0.7,1.5-1.1,3.2-1.1,5.2c0,2,0.4,3.7,1.1,5.2c0.7,1.5,1.7,2.6,3,3.4c1.3,0.8,2.7,1.2,4.3,1.2c1.9,0,3.6-0.5,5-1.4	c1.4-0.9,2.4-2.2,3-3.8h6.3c-0.8,3.3-2.4,5.9-4.9,7.9c-2.5,1.9-5.6,2.9-9.3,2.9c-2.9,0-5.4-0.6-7.6-1.9c-2.2-1.3-3.9-3.1-5.1-5.4	c-1.2-2.3-1.8-5-1.8-7.9c0-3,0.6-5.6,1.8-8c1.2-2.3,2.9-4.1,5.1-5.4c2.2-1.3,4.7-1.9,7.6-1.9C120,30.4,123.1,31.4,125.5,33.3z" class="st0"/><path d="M152,38.4c1.8,1,3.3,2.4,4.3,4.2s1.6,4,1.6,6.4c0,2.5-0.5,4.6-1.6,6.4c-1,1.8-2.5,3.2-4.3,4.2	c-1.8,1-3.9,1.5-6.2,1.5c-2.3,0-4.4-0.5-6.2-1.5c-1.8-1-3.3-2.4-4.3-4.2c-1.1-1.8-1.6-4-1.6-6.4c0-2.5,0.5-4.6,1.6-6.4	c1-1.8,2.5-3.2,4.3-4.2c1.8-1,3.9-1.4,6.2-1.4C148.1,36.9,150.2,37.4,152,38.4z M141.6,43.9c-1.2,1.2-1.7,2.9-1.7,5.1	c0,2.2,0.6,4,1.7,5.1c1.2,1.2,2.6,1.8,4.3,1.8c1.7,0,3.1-0.6,4.3-1.8c1.2-1.2,1.7-2.9,1.7-5.1c0-2.2-0.6-4-1.7-5.1	c-1.2-1.2-2.6-1.8-4.3-1.8C144.2,42.1,142.8,42.7,141.6,43.9z" class="st2"/><path d="M182.8,39.6c1.6,1.8,2.4,4.3,2.4,7.5v13.7h-6v-13c0-1.9-0.5-3.3-1.4-4.4c-1-1-2.3-1.6-4-1.6	c-1.7,0-3.1,0.6-4.1,1.7c-1,1.1-1.5,2.7-1.5,4.8v12.5h-6V37.2h6v4.7c0.6-1.6,1.7-2.8,3.1-3.7c1.4-0.9,3.1-1.3,5-1.3	C179,36.9,181.1,37.8,182.8,39.6z" class="st2"/><path d="M203.1,55.6v5.2h-3.1c-2.6,0-4.7-0.6-6.1-1.9c-1.4-1.3-2.1-3.4-2.1-6.4V42.3h-3.3v-5.1h3.3v-5.8h6v5.8h5.3v5.1	h-5.3v10.3c0,1.1,0.2,1.9,0.7,2.4c0.5,0.5,1.2,0.7,2.3,0.7H203.1z" class="st2"/><path d="M216.8,38.2c1.4-0.9,3.1-1.3,4.9-1.3v6.4H220c-4.4,0-6.6,2-6.6,6.1v11.4h-6V37.2h6v4.5	C214.2,40.2,215.4,39,216.8,38.2z" class="st2"/><path d="M239.4,38.3c1.4,0.9,2.4,2.2,3,3.8v-4.9h6v23.6h-6v-4.9c-0.6,1.6-1.6,2.9-3,3.8c-1.4,1-3.1,1.4-5.1,1.4	c-2,0-3.8-0.5-5.4-1.4c-1.6-1-2.8-2.4-3.7-4.2c-0.9-1.8-1.3-4-1.3-6.4c0-2.5,0.4-4.6,1.3-6.4c0.9-1.8,2.1-3.2,3.7-4.2	c1.6-1,3.4-1.4,5.4-1.4C236.2,36.9,237.9,37.4,239.4,38.3z M231.6,44c-1.1,1.2-1.7,2.9-1.7,5s0.6,3.8,1.7,5c1.1,1.2,2.6,1.8,4.5,1.8	c1.8,0,3.3-0.6,4.5-1.9s1.8-2.9,1.8-5c0-2.1-0.6-3.8-1.8-5s-2.7-1.9-4.5-1.9C234.3,42.2,232.8,42.8,231.6,44z" class="st2"/><g><g><path d="M106.5,88.4c-0.1-0.1-0.1-0.2-0.1-0.4V74.2c0-0.2,0-0.3,0.1-0.4c0.1-0.1,0.2-0.1,0.4-0.1h2 c0.2,0,0.3,0,0.4,0.1c0.1,0.1,0.1,0.2,0.1,0.4v13.9c0,0.1,0,0.3-0.1,0.4c-0.1,0.1-0.2,0.1-0.4,0.1h-2 C106.7,88.6,106.6,88.5,106.5,88.4z" class="st0"/><path d="M112.6,88.4c-0.1-0.1-0.1-0.2-0.1-0.4V78c0-0.2,0-0.3,0.1-0.4c0.1-0.1,0.2-0.1,0.4-0.1h1.8 c0.2,0,0.3,0,0.4,0.1c0.1,0.1,0.1,0.2,0.1,0.4v0.9c0.9-1.1,2.1-1.6,3.6-1.6c1.3,0,2.3,0.4,3.1,1.3c0.8,0.9,1.1,2,1.1,3.5v6 c0,0.1,0,0.3-0.1,0.4c-0.1,0.1-0.2,0.1-0.4,0.1h-1.9c-0.1,0-0.3,0-0.4-0.1c-0.1-0.1-0.1-0.2-0.1-0.4v-5.9c0-0.8-0.2-1.5-0.6-1.9 c-0.4-0.5-1-0.7-1.7-0.7c-0.7,0-1.3,0.2-1.7,0.7c-0.4,0.5-0.7,1.1-0.7,1.9v5.9c0,0.1,0,0.3-0.1,0.4c-0.1,0.1-0.2,0.1-0.4,0.1h-1.9 C112.8,88.6,112.7,88.5,112.6,88.4z" class="st0"/><path d="M127.7,87.6c-0.7-0.7-1-1.7-1-3v-4.8h-1.7c-0.1,0-0.3,0-0.4-0.1c-0.1-0.1-0.1-0.2-0.1-0.4V78 c0-0.1,0-0.3,0.1-0.4c0.1-0.1,0.2-0.1,0.4-0.1h1.7V74c0-0.2,0-0.3,0.1-0.4s0.2-0.1,0.4-0.1h1.8c0.2,0,0.3,0,0.4,0.1 s0.1,0.2,0.1,0.4v3.5h2.7c0.1,0,0.3,0.1,0.4,0.1c0.1,0.1,0.1,0.2,0.1,0.4v1.3c0,0.1,0,0.3-0.1,0.4c-0.1,0.1-0.2,0.1-0.4,0.1h-2.7 v4.6c0,0.6,0.1,1.1,0.3,1.4c0.2,0.3,0.6,0.5,1,0.5h1.5c0.2,0,0.3,0,0.4,0.1c0.1,0.1,0.1,0.2,0.1,0.4v1.3c0,0.1,0,0.3-0.1,0.4 c-0.1,0.1-0.2,0.1-0.4,0.1h-1.7C129.3,88.6,128.4,88.2,127.7,87.6z" class="st0"/><path d="M135.8,87.4c-0.9-0.9-1.4-2.2-1.5-3.9l0-0.5c0-1.8,0.5-3.2,1.4-4.2c0.9-1,2.2-1.5,3.9-1.5 c1.7,0,3,0.5,3.9,1.5c0.9,1,1.4,2.4,1.4,4.1v0.4c0,0.1-0.1,0.3-0.1,0.4c-0.1,0.1-0.2,0.1-0.4,0.1h-7.1v0.2c0,0.8,0.2,1.5,0.6,2 s1,0.8,1.7,0.8c0.8,0,1.5-0.3,2-1c0.1-0.2,0.2-0.3,0.3-0.3c0.1,0,0.2-0.1,0.4-0.1h1.9c0.1,0,0.2,0,0.3,0.1 c0.1,0.1,0.1,0.2,0.1,0.3c0,0.3-0.2,0.7-0.6,1.2c-0.4,0.5-1,0.9-1.7,1.2s-1.6,0.5-2.6,0.5C138,88.8,136.7,88.3,135.8,87.4z M141.9,82.1L141.9,82.1c0-0.9-0.2-1.6-0.6-2.1c-0.4-0.5-1-0.8-1.7-0.8c-0.7,0-1.3,0.3-1.7,0.8c-0.4,0.5-0.6,1.2-0.6,2v0H141.9z" class="st0"/><path d="M147.2,88.4c-0.1-0.1-0.1-0.2-0.1-0.4v-10c0-0.2,0-0.3,0.1-0.4c0.1-0.1,0.2-0.1,0.4-0.1h1.7 c0.2,0,0.3,0.1,0.4,0.1c0.1,0.1,0.1,0.2,0.1,0.4v0.9c0.7-0.9,1.7-1.4,3.1-1.4h0.9c0.2,0,0.3,0,0.4,0.1c0.1,0.1,0.1,0.2,0.1,0.4 v1.6c0,0.1,0,0.3-0.1,0.4c-0.1,0.1-0.2,0.1-0.4,0.1h-1.7c-0.7,0-1.2,0.2-1.6,0.6c-0.4,0.4-0.6,0.9-0.6,1.6v5.8 c0,0.1,0,0.3-0.1,0.4c-0.1,0.1-0.2,0.1-0.4,0.1h-1.9C147.5,88.6,147.3,88.5,147.2,88.4z" class="st0"/><path d="M156.1,75.6c-0.1-0.1-0.1-0.2-0.1-0.4v-1.6c0-0.2,0-0.3,0.1-0.4c0.1-0.1,0.2-0.1,0.4-0.1h2 c0.2,0,0.3,0.1,0.4,0.1c0.1,0.1,0.1,0.2,0.1,0.4v1.6c0,0.1-0.1,0.3-0.2,0.4c-0.1,0.1-0.2,0.1-0.4,0.1h-2 C156.3,75.7,156.2,75.7,156.1,75.6z M156.2,88.4c-0.1-0.1-0.1-0.2-0.1-0.4V78c0-0.2,0-0.3,0.1-0.4c0.1-0.1,0.2-0.1,0.4-0.1h1.8 c0.1,0,0.3,0.1,0.4,0.1c0.1,0.1,0.1,0.2,0.1,0.4v10c0,0.1,0,0.3-0.1,0.4c-0.1,0.1-0.2,0.1-0.4,0.1h-1.8 C156.4,88.6,156.3,88.5,156.2,88.4z" class="st0"/><path d="M162.7,87.5c-0.9-0.9-1.4-2-1.5-3.5l0-0.9l0-0.9c0.1-1.5,0.6-2.7,1.5-3.5c0.9-0.9,2.2-1.3,3.9-1.3 c1.6,0,2.9,0.4,3.8,1.3c0.9,0.9,1.4,2,1.5,3.5c0,0.2,0,0.5,0,0.9c0,0.5,0,0.8,0,0.9c-0.1,1.5-0.6,2.7-1.5,3.5s-2.2,1.3-3.9,1.3 C164.9,88.8,163.6,88.4,162.7,87.5z M168.3,85.9c0.4-0.5,0.6-1.2,0.6-2.1c0-0.1,0-0.4,0-0.8c0-0.4,0-0.7,0-0.8 c0-0.9-0.2-1.6-0.7-2.1c-0.4-0.5-1-0.7-1.7-0.7c-0.8,0-1.3,0.2-1.7,0.7c-0.4,0.5-0.6,1.2-0.7,2.1l0,0.8l0,0.8 c0,0.9,0.2,1.6,0.7,2.1c0.4,0.5,1,0.7,1.7,0.7S167.9,86.4,168.3,85.9z" class="st0"/><path d="M174.4,88.4c-0.1-0.1-0.1-0.2-0.1-0.4v-10c0-0.2,0-0.3,0.1-0.4c0.1-0.1,0.2-0.1,0.4-0.1h1.7 c0.2,0,0.3,0.1,0.4,0.1c0.1,0.1,0.1,0.2,0.1,0.4v0.9c0.7-0.9,1.7-1.4,3.1-1.4h0.9c0.2,0,0.3,0,0.4,0.1c0.1,0.1,0.1,0.2,0.1,0.4 v1.6c0,0.1,0,0.3-0.1,0.4c-0.1,0.1-0.2,0.1-0.4,0.1h-1.7c-0.7,0-1.2,0.2-1.6,0.6c-0.4,0.4-0.6,0.9-0.6,1.6v5.8 c0,0.1,0,0.3-0.1,0.4c-0.1,0.1-0.2,0.1-0.4,0.1h-1.9C174.6,88.6,174.5,88.5,174.4,88.4z" class="st0"/><path d="M189,87.3c-1.1-1-1.6-2.4-1.7-4.3c0-0.4,0-1,0-1.9c0-0.9,0-1.5,0-1.9c0.1-1.8,0.6-3.2,1.7-4.2 c1.1-1,2.6-1.5,4.5-1.5c1.3,0,2.4,0.2,3.3,0.6c0.9,0.4,1.7,1,2.2,1.8c0.5,0.8,0.8,1.6,0.8,2.5v0c0,0.1,0,0.2-0.1,0.3 c-0.1,0.1-0.2,0.1-0.3,0.1h-2.1c-0.2,0-0.3,0-0.4-0.1c-0.1-0.1-0.2-0.2-0.2-0.4c-0.2-0.9-0.6-1.5-1.1-1.9 c-0.5-0.4-1.2-0.5-2.1-0.5c-2,0-3.1,1.1-3.2,3.4c0,0.4,0,1,0,1.8c0,0.8,0,1.4,0,1.8c0.1,2.3,1.1,3.4,3.2,3.4 c0.9,0,1.5-0.2,2.1-0.5c0.5-0.4,0.9-1,1.1-1.9c0.1-0.2,0.1-0.3,0.2-0.4s0.2-0.1,0.4-0.1h2.1c0.1,0,0.2,0,0.3,0.1 c0.1,0.1,0.1,0.2,0.1,0.3c0,0.9-0.3,1.8-0.8,2.5c-0.5,0.8-1.2,1.3-2.2,1.8c-0.9,0.4-2,0.6-3.3,0.6C191.6,88.8,190.1,88.3,189,87.3 z" class="st0"/><path d="M202.3,88.4c-0.1-0.1-0.1-0.2-0.1-0.4v-10c0-0.2,0-0.3,0.1-0.4c0.1-0.1,0.2-0.1,0.4-0.1h1.7 c0.2,0,0.3,0.1,0.4,0.1c0.1,0.1,0.1,0.2,0.1,0.4v0.9c0.7-0.9,1.7-1.4,3.1-1.4h0.9c0.2,0,0.3,0,0.4,0.1c0.1,0.1,0.1,0.2,0.1,0.4 v1.6c0,0.1,0,0.3-0.1,0.4c-0.1,0.1-0.2,0.1-0.4,0.1h-1.7c-0.7,0-1.2,0.2-1.6,0.6c-0.4,0.4-0.6,0.9-0.6,1.6v5.8 c0,0.1,0,0.3-0.1,0.4c-0.1,0.1-0.2,0.1-0.4,0.1h-1.9C202.5,88.6,202.4,88.5,202.3,88.4z" class="st0"/><path d="M211.9,87.4c-0.9-0.9-1.4-2.2-1.5-3.9l0-0.5c0-1.8,0.5-3.2,1.4-4.2c0.9-1,2.2-1.5,3.9-1.5 c1.7,0,3,0.5,3.9,1.5s1.4,2.4,1.4,4.1v0.4c0,0.1-0.1,0.3-0.1,0.4c-0.1,0.1-0.2,0.1-0.4,0.1h-7.1v0.2c0,0.8,0.2,1.5,0.6,2 c0.4,0.5,1,0.8,1.7,0.8c0.8,0,1.5-0.3,2-1c0.1-0.2,0.2-0.3,0.3-0.3c0.1,0,0.2-0.1,0.4-0.1h1.9c0.1,0,0.2,0,0.3,0.1 c0.1,0.1,0.1,0.2,0.1,0.3c0,0.3-0.2,0.7-0.6,1.2c-0.4,0.5-1,0.9-1.7,1.2s-1.6,0.5-2.6,0.5C214.1,88.8,212.9,88.3,211.9,87.4z M218,82.1L218,82.1c0-0.9-0.2-1.6-0.6-2.1c-0.4-0.5-1-0.8-1.7-0.8s-1.3,0.3-1.7,0.8c-0.4,0.5-0.6,1.2-0.6,2v0H218z" class="st0"/><path d="M224.5,88.4c-0.6-0.3-1.1-0.7-1.4-1.2c-0.3-0.5-0.5-1-0.5-1.6c0-1,0.4-1.7,1.2-2.3s1.9-1,3.2-1.2l2.9-0.4 v-0.4c0-0.6-0.2-1.1-0.5-1.4c-0.3-0.3-0.8-0.5-1.5-0.5c-0.5,0-0.8,0.1-1.1,0.3c-0.3,0.2-0.5,0.3-0.7,0.5c-0.2,0.2-0.3,0.3-0.4,0.4 c-0.1,0.2-0.2,0.3-0.3,0.3h-1.7c-0.1,0-0.2,0-0.3-0.1c-0.1-0.1-0.1-0.2-0.1-0.3c0-0.4,0.2-0.8,0.5-1.2c0.3-0.4,0.8-0.8,1.5-1.2 c0.7-0.3,1.6-0.5,2.6-0.5c1.7,0,2.9,0.4,3.7,1.1c0.8,0.8,1.1,1.7,1.1,3v6.7c0,0.1,0,0.3-0.1,0.4c-0.1,0.1-0.2,0.1-0.4,0.1h-1.8 c-0.1,0-0.3,0-0.4-0.1c-0.1-0.1-0.1-0.2-0.1-0.4v-0.8c-0.3,0.5-0.8,0.8-1.3,1.1c-0.6,0.3-1.3,0.4-2.1,0.4 C225.7,88.8,225.1,88.7,224.5,88.4z M229.1,86c0.5-0.5,0.7-1.2,0.7-2.2v-0.4l-2.1,0.3c-1.6,0.3-2.4,0.8-2.4,1.6 c0,0.5,0.2,0.8,0.6,1.1c0.4,0.2,0.8,0.4,1.4,0.4C228,86.8,228.6,86.5,229.1,86z" class="st0"/><path d="M237.4,87.6c-0.7-0.7-1-1.7-1-3v-4.8h-1.7c-0.1,0-0.3,0-0.4-0.1c-0.1-0.1-0.1-0.2-0.1-0.4V78 c0-0.1,0-0.3,0.1-0.4s0.2-0.1,0.4-0.1h1.7V74c0-0.2,0-0.3,0.1-0.4s0.2-0.1,0.4-0.1h1.8c0.2,0,0.3,0,0.4,0.1 c0.1,0.1,0.1,0.2,0.1,0.4v3.5h2.7c0.1,0,0.3,0.1,0.4,0.1c0.1,0.1,0.1,0.2,0.1,0.4v1.3c0,0.1,0,0.3-0.1,0.4 c-0.1,0.1-0.2,0.1-0.4,0.1h-2.7v4.6c0,0.6,0.1,1.1,0.3,1.4c0.2,0.3,0.6,0.5,1,0.5h1.5c0.2,0,0.3,0,0.4,0.1 c0.1,0.1,0.1,0.2,0.1,0.4v1.3c0,0.1,0,0.3-0.1,0.4c-0.1,0.1-0.2,0.1-0.4,0.1h-1.7C239,88.6,238.1,88.2,237.4,87.6z" class="st0"/><path d="M244.5,75.6c-0.1-0.1-0.1-0.2-0.1-0.4v-1.6c0-0.2,0-0.3,0.1-0.4c0.1-0.1,0.2-0.1,0.4-0.1h2 c0.2,0,0.3,0.1,0.4,0.1c0.1,0.1,0.1,0.2,0.1,0.4v1.6c0,0.1-0.1,0.3-0.2,0.4c-0.1,0.1-0.2,0.1-0.4,0.1h-2 C244.8,75.7,244.6,75.7,244.5,75.6z M244.6,88.4c-0.1-0.1-0.1-0.2-0.1-0.4V78c0-0.2,0-0.3,0.1-0.4c0.1-0.1,0.2-0.1,0.4-0.1h1.8 c0.1,0,0.3,0.1,0.4,0.1c0.1,0.1,0.1,0.2,0.1,0.4v10c0,0.1,0,0.3-0.1,0.4c-0.1,0.1-0.2,0.1-0.4,0.1H245 C244.8,88.6,244.7,88.5,244.6,88.4z" class="st0"/><path d="M251.2,87.5c-0.9-0.9-1.4-2-1.5-3.5l0-0.9l0-0.9c0.1-1.5,0.6-2.7,1.5-3.5c0.9-0.9,2.2-1.3,3.9-1.3 c1.6,0,2.9,0.4,3.8,1.3c0.9,0.9,1.4,2,1.5,3.5c0,0.2,0,0.5,0,0.9c0,0.5,0,0.8,0,0.9c-0.1,1.5-0.6,2.7-1.5,3.5s-2.2,1.3-3.9,1.3 C253.4,88.8,252.1,88.4,251.2,87.5z M256.8,85.9c0.4-0.5,0.6-1.2,0.6-2.1c0-0.1,0-0.4,0-0.8c0-0.4,0-0.7,0-0.8 c0-0.9-0.2-1.6-0.7-2.1c-0.4-0.5-1-0.7-1.7-0.7c-0.8,0-1.3,0.2-1.7,0.7c-0.4,0.5-0.6,1.2-0.7,2.1l0,0.8l0,0.8 c0,0.9,0.2,1.6,0.7,2.1c0.4,0.5,1,0.7,1.7,0.7S256.4,86.4,256.8,85.9z" class="st0"/><path d="M262.9,88.4c-0.1-0.1-0.1-0.2-0.1-0.4v-10c0-0.2,0-0.3,0.1-0.4c0.1-0.1,0.2-0.1,0.4-0.1h1.7 c0.2,0,0.3,0.1,0.4,0.1c0.1,0.1,0.1,0.2,0.1,0.4v0.9c0.7-0.9,1.7-1.4,3.1-1.4h0.9c0.2,0,0.3,0,0.4,0.1c0.1,0.1,0.1,0.2,0.1,0.4 v1.6c0,0.1,0,0.3-0.1,0.4c-0.1,0.1-0.2,0.1-0.4,0.1h-1.7c-0.7,0-1.2,0.2-1.6,0.6c-0.4,0.4-0.6,0.9-0.6,1.6v5.8 c0,0.1,0,0.3-0.1,0.4c-0.1,0.1-0.2,0.1-0.4,0.1h-1.9C263.1,88.6,263,88.5,262.9,88.4z" class="st0"/></g></g></svg>