<svg xmlns="http://www.w3.org/2000/svg" xmlns:xlink="http://www.w3.org/1999/xlink" id="Layer_1" x="0" y="0" version="1.1" viewBox="0 0 179.5 87" xml:space="preserve" style="enable-background:new 0 0 179.5 87"><style type="text/css">.st0{fill:#222}.st1{fill:#b6b6b6}.st2{fill:#ffae00}</style><path d="M44.3,58.4c-3.6,3.2-8.4,5.1-13.6,5.1c-11.3,0-20.5-9.2-20.5-20.5c0-11.3,9.2-20.5,20.5-20.5	c8.4,0,15.6,5,18.8,12.3h10.1C56,22.2,44.4,13,30.7,13c-16.6,0-30,13.5-30,30c0,16.6,13.5,30,30,30c11,0,20.6-5.9,25.8-14.7H44.3z" class="st0"/><rect width="5.6" height="87.7" x="21.5" y="-1.6" class="st1" transform="matrix(0.962 0.2732 -0.2732 0.962 12.4728 -5.0409)"/><rect width="5.6" height="87.7" x="31.8" y="-.2" class="st2" transform="matrix(0.962 0.2732 -0.2732 0.962 13.243 -7.7916)"/><path d="M83.2,37.7c1.8,1,3.3,2.4,4.3,4.2s1.6,4,1.6,6.4c0,2.5-0.5,4.6-1.6,6.4c-1,1.8-2.5,3.2-4.3,4.2	c-1.8,1-3.9,1.5-6.2,1.5c-2.3,0-4.4-0.5-6.2-1.5c-1.8-1-3.3-2.4-4.3-4.2c-1.1-1.8-1.6-4-1.6-6.4c0-2.5,0.5-4.6,1.6-6.4	c1-1.8,2.5-3.2,4.3-4.2c1.8-1,3.9-1.4,6.2-1.4C79.3,36.2,81.3,36.7,83.2,37.7z M72.7,43.2c-1.2,1.2-1.7,2.9-1.7,5.1	c0,2.2,0.6,4,1.7,5.1c1.2,1.2,2.6,1.8,4.3,1.8c1.7,0,3.1-0.6,4.3-1.8c1.2-1.2,1.7-2.9,1.7-5.1c0-2.2-0.6-4-1.7-5.1	c-1.2-1.2-2.6-1.8-4.3-1.8C75.3,41.4,73.9,42,72.7,43.2z" class="st2"/><path d="M113.9,38.9c1.6,1.8,2.4,4.3,2.4,7.5v13.7h-6v-13c0-1.9-0.5-3.3-1.4-4.4c-1-1-2.3-1.6-4-1.6	c-1.7,0-3.1,0.6-4.1,1.7c-1,1.1-1.5,2.7-1.5,4.8v12.5h-6V36.5h6v4.7c0.6-1.6,1.7-2.8,3.1-3.7c1.4-0.9,3.1-1.3,5-1.3	C110.1,36.2,112.3,37.1,113.9,38.9z" class="st2"/><path d="M134.2,55v5.2H131c-2.6,0-4.7-0.6-6.1-1.9c-1.4-1.3-2.1-3.4-2.1-6.4V41.6h-3.3v-5.1h3.3v-5.8h6v5.8h5.3v5.1	h-5.3v10.3c0,1.1,0.2,1.9,0.7,2.4c0.5,0.5,1.2,0.7,2.3,0.7H134.2z" class="st2"/><path d="M148,37.5c1.4-0.9,3.1-1.3,4.9-1.3v6.4h-1.7c-4.4,0-6.6,2-6.6,6.1v11.4h-6V36.5h6V41	C145.4,39.5,146.5,38.3,148,37.5z" class="st2"/><path d="M170.5,37.6c1.4,0.9,2.4,2.2,3,3.8v-4.9h6v23.6h-6v-4.9c-0.6,1.6-1.6,2.9-3,3.8c-1.4,1-3.1,1.4-5.1,1.4	c-2,0-3.8-0.5-5.4-1.4c-1.6-1-2.8-2.4-3.7-4.2c-0.9-1.8-1.3-4-1.3-6.4c0-2.5,0.4-4.6,1.3-6.4c0.9-1.8,2.1-3.2,3.7-4.2	c1.6-1,3.4-1.4,5.4-1.4C167.4,36.2,169.1,36.7,170.5,37.6z M162.7,43.3c-1.1,1.2-1.7,2.9-1.7,5s0.6,3.8,1.7,5	c1.1,1.2,2.6,1.8,4.5,1.8c1.8,0,3.3-0.6,4.5-1.9s1.8-2.9,1.8-5c0-2.1-0.6-3.8-1.8-5s-2.7-1.9-4.5-1.9	C165.4,41.5,163.9,42.1,162.7,43.3z" class="st2"/></svg>